<?xml version="1.0" encoding="UTF-8"?>
<!DOCTYPE svg PUBLIC "-//W3C//DTD SVG 1.1//EN" "http://www.w3.org/Graphics/SVG/1.1/DTD/svg11.dtd">
<!-- Creator: CorelDRAW -->
<svg xmlns="http://www.w3.org/2000/svg" xml:space="preserve" width="210mm" height="297mm" version="1.1" style="shape-rendering:geometricPrecision; text-rendering:geometricPrecision; image-rendering:optimizeQuality; fill-rule:evenodd; clip-rule:evenodd"
viewBox="0 0 21000 29700"
 xmlns:xlink="http://www.w3.org/1999/xlink"
 xmlns:xodm="http://www.corel.com/coreldraw/odm/2003">
 <defs>
  <style type="text/css">
   <![CDATA[
    .str8 {stroke:white;stroke-width:169.47;stroke-miterlimit:22.9256}
    .str5 {stroke:white;stroke-width:156.9;stroke-miterlimit:22.9256}
    .str0 {stroke:white;stroke-width:139;stroke-miterlimit:22.9256}
    .str4 {stroke:white;stroke-width:157.55;stroke-miterlimit:22.9256}
    .str2 {stroke:white;stroke-width:160.18;stroke-miterlimit:22.9256}
    .str1 {stroke:white;stroke-width:150;stroke-miterlimit:22.9256}
    .str3 {stroke:white;stroke-width:157.87;stroke-miterlimit:22.9256}
    .str7 {stroke:white;stroke-width:206.74;stroke-miterlimit:22.9256}
    .str6 {stroke:white;stroke-width:201.79;stroke-miterlimit:22.9256}
    .fil1 {fill:none}
    .fil0 {fill:white}
   ]]>
  </style>
 </defs>
 <g id="Camada_x0020_1">
  <metadata id="CorelCorpID_0Corel-Layer"/>
  <g id="_2063202953792">
   <path class="fil0 str0" d="M4782 24461c482.21,-983.28 5752.1,-12850 5752.1,-12850l5683.2 12850c-1802.9,-2405.1 -3137.8,-6243.4 -5683.2,-6374.3 -3271.4,569.74 -3947.4,4120.2 -5752.1,6374.3z"/>
   <g>
    <line class="fil1 str1" x1="10521" y1="25161" x2="10556.88" y2= "4359" />
    <line class="fil1 str2" x1="1083.5" y1="6540.2" x2="9779.7" y2= "14461.3" />
    <line class="fil1 str1" x1="15057" y1="11330.5" x2="20146.1" y2= "6573.3" />
    <line class="fil1 str1" x1="7961.7" y1="8574.2" x2="13042.9" y2= "20798.2" />
    <line class="fil1 str3" x1="13003" y1="8649.1" x2="8001.6" y2= "20797.1" />
    <line class="fil1 str1" x1="16937" y1="10592.9" x2="11700.4" y2= "14059.4" />
    <path class="fil1 str4" d="M-800.86 14834c407.61,0 10068,-36.81 10068,-36.81"/>
    <line class="fil1 str5" x1="21916" y1="14797" x2="11885" y2= "14833.79" />
    <path class="fil1 str1" d="M1854.5 23242c184.39,0 6232.3,-5937.3 6232.3,-5937.3"/>
    <line class="fil1 str6" x1="17436" y1="21896" x2="12715.1" y2= "16991.5" />
    <path class="fil1 str1" d="M20035 22873c-258.14,-221.26 -2839.6,-2581.4 -2839.6,-2581.4"/>
    <path class="fil1 str7" d="M3010.8 19344c199.35,-103.67 6129.9,-4043.2 6129.9,-4043.2"/>
    <line class="fil1 str8" x1="17301" y1="18956" x2="11705.6" y2= "15542.1" />
    <g>
     <line class="fil1 str1" x1="3587.7" y1="6868.3" x2="5837.2" y2= "8933.4" />
     <line class="fil1 str1" x1="17601" y1="7163.3" x2="15830.9" y2= "8822.8" />
     <line class="fil1 str1" x1="6169.2" y1="10224.1" x2="7164.89" y2= "11182.91" />
     <line class="fil1 str1" x1="14762" y1="10519.2" x2="13250" y2= "11994.3" />
     <path class="fil1 str1" d="M4730.9 22799c-3873.2,-2873.5 -6793.1,-8775.9 -1253.8,-14862"/>
     <path class="fil1 str1" d="M16052 8970.3c-8681.3,-6490.6 -15789,3282.2 -13202,8444.9"/>
     <path class="fil1 str1" d="M3698.4 19038c3055.1,3723.1 6892,4474 10731,2397"/>
     <path class="fil1 str1" d="M4251.5 7495.2c4216.3,-3005.6 8432.6,-2870 12649,221.26"/>
     <path class="fil1 str1" d="M7238.6 10224.1c1809.9,-1023.8 3733.3,-1707.2 6416.7,-110.63"/>
     <path class="fil1 str1" d="M5726.6 11109.2c-2240.3,4125.2 -831.94,6252.4 995.69,8149.9"/>
     <path class="fil1 str1" d="M7017.3 12510.5c-964.29,1883.2 -1176.8,3621.9 405.65,5015.3"/>
     <path class="fil1 str1" d="M8308 13469.4c-201.9,153.86 -584.63,1313.4 -147.51,2323.3"/>
     <path class="fil1 str1" d="M10668 23684c6714.3,-372.59 13022,-7732.4 6158.5,-15341"/>
     <path class="fil1 str1" d="M17564 7569c4423,3512.7 4494.9,11737 -1032.6,15267"/>
     <path class="fil1 str1" d="M15425 9892.2c2673.9,3255.2 3114.7,6579.2 -590.04,10031"/>
     <path class="fil1 str1" d="M12549 11883.6c1986.3,1634.9 1536.7,3269.8 811.3,4904.7"/>
     <path class="fil1 str1" d="M14503 11478c1635.4,2006.7 1848.7,4226.7 -442.53,6822.3"/>
    </g>
   </g>
  </g>
 </g>
</svg>
